<svg id="Layer_1" data-name="Layer 1" xmlns="http://www.w3.org/2000/svg" viewBox="0 0 75 75"><defs><style>.cls-1{fill:none;}.cls-1,.cls-2,.cls-3{stroke:#363636;stroke-width:2px;}.cls-1,.cls-2{stroke-linecap:round;stroke-linejoin:round;}.cls-2,.cls-3{fill:#fff;}.cls-3{stroke-miterlimit:10;}</style></defs><title>illustrations-150x150-certificate-corner</title><path class="cls-1" d="M18,19a31,31,0,0,1,21.24-4.23c8.43,1.47,21.36,10.25,24.66,25"/><path class="cls-2" d="M50.32,28.22c.57-3.14,3.93-5.15,3.93-5.15s2.44,3.07,1.87,6.21-3.94,5.14-3.94,5.14S49.75,31.35,50.32,28.22Z"/><path class="cls-2" d="M39.3,21.52c.54-3.14,3.89-5.18,3.89-5.18s2.46,3.05,1.91,6.19-3.89,5.18-3.89,5.18S38.75,24.66,39.3,21.52Z"/><path class="cls-2" d="M33.44,20.14c.22-3.18,3.34-5.55,3.34-5.55s2.76,2.78,2.54,6S36,26.1,36,26.1,33.22,23.32,33.44,20.14Z"/><path class="cls-2" d="M27.42,21.06C26.72,18,29,14.78,29,14.78s3.44,1.88,4.14,5S31.55,26,31.55,26,28.11,24.17,27.42,21.06Z"/><path class="cls-2" d="M54.62,34.5c.84-3.08,4.36-4.79,4.36-4.79s2.16,3.26,1.33,6.34S56,40.84,56,40.84,53.78,37.57,54.62,34.5Z"/><path class="cls-2" d="M66.13,33.8C63,33.31,60.88,30,60.88,30s3-2.52,6.15-2,5.26,3.79,5.26,3.79S69.28,34.29,66.13,33.8Z"/><path class="cls-2" d="M44.77,24.26c.34-3.17,3.55-5.42,3.55-5.42s2.65,2.89,2.31,6.05-3.55,5.43-3.55,5.43S44.43,27.43,44.77,24.26Z"/><path class="cls-2" d="M61.63,43.05C60.82,40,63,36.71,63,36.71s3.51,1.75,4.33,4.83S66,47.87,66,47.87,62.45,46.13,61.63,43.05Z"/><path class="cls-2" d="M32.63,10c-1,3-4.6,4.56-4.6,4.56s-2-3.37-1-6.4,4.6-4.56,4.6-4.56S33.63,7,32.63,10Z"/><path class="cls-2" d="M39.63,10.76C37.88,13.42,34,14,34,14s-1-3.78.72-6.44,5.63-3.19,5.63-3.19S41.38,8.09,39.63,10.76Z"/><path class="cls-2" d="M46.35,12.69c-2.27,2.25-6.18,2-6.18,2s-.24-3.91,2-6.15,6.17-2,6.17-2S48.61,10.45,46.35,12.69Z"/><path class="cls-2" d="M52.72,16.41c-2.71,1.67-6.46.5-6.46.5s.67-3.86,3.39-5.52,6.45-.5,6.45-.5S55.44,14.75,52.72,16.41Z"/><path class="cls-2" d="M58.65,20.88c-2.89,1.33-6.47-.27-6.47-.27s1.12-3.76,4-5.09,6.47.27,6.47.27S61.55,19.55,58.65,20.88Z"/><path class="cls-2" d="M62.68,27c-3.15.52-6.17-2-6.17-2s2.07-3.32,5.22-3.83,6.17,2,6.17,2S65.82,26.44,62.68,27Z"/><path class="cls-1" d="M18.36,18.58a31,31,0,0,0-4.22,21.24c1.47,8.43,10.24,21.36,25,24.65"/><path class="cls-2" d="M27.62,50.92c-3.13.57-5.14,3.93-5.14,3.93s3.07,2.43,6.2,1.86,5.15-3.93,5.15-3.93S30.76,50.34,27.62,50.92Z"/><path class="cls-2" d="M20.93,39.89c-3.14.55-5.18,3.9-5.18,3.9s3.05,2.46,6.19,1.91,5.18-3.89,5.18-3.89S24.07,39.35,20.93,39.89Z"/><path class="cls-2" d="M19.55,34c-3.18.22-5.56,3.34-5.56,3.34s2.79,2.76,6,2.54,5.55-3.34,5.55-3.34S22.73,33.82,19.55,34Z"/><path class="cls-2" d="M20.46,28c-3.11-.69-6.27,1.62-6.27,1.62s1.87,3.44,5,4.13,6.28-1.61,6.28-1.61S23.57,28.71,20.46,28Z"/><path class="cls-2" d="M33.9,55.22c-3.07.84-4.79,4.36-4.79,4.36s3.27,2.16,6.34,1.32,4.79-4.36,4.79-4.36S37,54.38,33.9,55.22Z"/><path class="cls-2" d="M33.2,66.73c-.48-3.15-3.79-5.25-3.79-5.25s-2.52,3-2,6.15,3.79,5.25,3.79,5.25S33.69,69.88,33.2,66.73Z"/><path class="cls-2" d="M23.67,45.37c-3.17.34-5.43,3.54-5.43,3.54s2.89,2.66,6.06,2.31,5.42-3.54,5.42-3.54S26.83,45,23.67,45.37Z"/><path class="cls-2" d="M42.45,62.23c-3.08-.82-6.33,1.37-6.33,1.37s1.74,3.51,4.82,4.33,6.33-1.37,6.33-1.37S45.53,63.05,42.45,62.23Z"/><path class="cls-2" d="M9.4,33.23c3-1,4.57-4.6,4.57-4.6s-3.38-2-6.41-1S3,32.23,3,32.23,6.37,34.22,9.4,33.23Z"/><path class="cls-2" d="M10.16,40.23c2.66-1.76,3.2-5.64,3.2-5.64s-3.78-1-6.44.72-3.2,5.63-3.2,5.63S7.5,42,10.16,40.23Z"/><path class="cls-2" d="M12.1,46.94c2.24-2.26,2-6.17,2-6.17s-3.91-.24-6.16,2-2,6.18-2,6.18S9.85,49.2,12.1,46.94Z"/><path class="cls-2" d="M15.82,53.32c1.66-2.72.5-6.46.5-6.46s-3.86.66-5.53,3.38-.5,6.46-.5,6.46S14.15,56,15.82,53.32Z"/><path class="cls-2" d="M20.28,59.25c1.33-2.89-.27-6.47-.27-6.47s-3.76,1.12-5.09,4,.28,6.48.28,6.48S19,62.15,20.28,59.25Z"/><path class="cls-2" d="M26.36,63.27c.51-3.14-2-6.17-2-6.17s-3.33,2.08-3.84,5.22,2,6.17,2,6.17S25.84,66.42,26.36,63.27Z"/><path class="cls-1" d="M9.94,13.19s-7.47-.82-8-5.72A4.24,4.24,0,0,1,4.05,3.13C5.61,2.37,7.61,3,7.64,5a2,2,0,0,1-3.5,1.34"/><path class="cls-3" d="M18.6,24.74c4.14-1.66,3.07-4.89,3.07-4.89s3.33-.58,2.93-5-3.54-4.09-3.54-4.09.5-3.61-3.87-4.53S12,8.44,12,8.44s-3.32-1.2-5.15,2.88S8,17,8,17s-2.93,2-.14,5.52S13.42,24,13.42,24,14.45,26.39,18.6,24.74Z"/><path class="cls-1" d="M15.27,15.54a4.87,4.87,0,0,0,2.67-2.46,6.27,6.27,0,0,1-2.28,1.85"/><path class="cls-1" d="M15.31,15.52a4.86,4.86,0,0,0-1.58-3.26A6.22,6.22,0,0,1,14.84,15"/><path class="cls-1" d="M14.51,15.68a6.18,6.18,0,0,0-2.91-.33,4.87,4.87,0,0,1,3.63.18"/><path class="cls-1" d="M15.26,15.62a4.82,4.82,0,0,1-1.93,3.07,6.21,6.21,0,0,0,1.4-2.57"/><path class="cls-1" d="M15.23,15.55a4.84,4.84,0,0,1,2.38,2.74,6.22,6.22,0,0,0-2-2.09"/><circle class="cls-3" cx="15.22" cy="15.71" r="0.83"/></svg>